M48
;DRILL file {KiCad 4.0.4-stable} date Mon May  7 18:28:04 2018
;FORMAT={-:-/ absolute / inch / decimal}
FMAT,2
INCH,TZ
T1C0.016
T2C0.031
T3C0.040
%
G90
G05
M72
T1
X2.6089Y-4.0417
X2.8504Y-1.6765
X3.039Y-3.0455
X3.1145Y-2.5263
X3.7275Y-1.9281
X3.8557Y-2.6056
X3.9256Y-2.6213
X3.9296Y-2.6573
X4.0285Y-4.0433
X4.0758Y-3.4251
X4.1669Y-3.7335
X4.1717Y-2.2108
X4.2725Y-2.2123
X4.3371Y-2.8142
X4.6541Y-3.8829
T2
X2.3Y-3.8
X2.3Y-4.4
X2.4Y-3.3
X2.4Y-3.6
X2.4Y-3.8
X2.4Y-3.95
X2.4Y-4.25
X2.4Y-4.4
X2.5Y-3.3
X2.5Y-3.6
X2.5Y-3.8
X2.5Y-3.95
X2.5Y-4.25
X2.5Y-4.4
X2.6Y-3.3
X2.6Y-3.6
X2.6Y-3.8
X2.6Y-3.95
X2.6Y-4.25
X2.6Y-4.4
X2.7Y-3.3
X2.7Y-3.6
X2.7Y-3.8
X2.7Y-3.95
X2.7Y-4.25
X2.7Y-4.4
X2.8Y-2.3
X2.8Y-2.9
X2.8Y-3.3
X2.8Y-3.6
X2.8Y-3.8
X2.8Y-3.95
X2.8Y-4.25
X2.8Y-4.4
X2.9Y-0.95
X2.9Y-1.25
X2.9Y-1.75
X2.9Y-2.05
X2.9Y-2.3
X2.9Y-2.45
X2.9Y-2.75
X2.9Y-2.9
X2.9Y-3.3
X2.9Y-3.6
X2.9Y-3.8
X2.9Y-3.95
X2.9Y-4.25
X2.9Y-4.4
X3.Y-0.95
X3.Y-1.25
X3.Y-1.75
X3.Y-2.05
X3.Y-2.3
X3.Y-2.45
X3.Y-2.75
X3.Y-2.9
X3.Y-3.3
X3.Y-3.6
X3.Y-3.8
X3.Y-3.95
X3.Y-4.25
X3.Y-4.4
X3.1Y-0.95
X3.1Y-1.25
X3.1Y-1.75
X3.1Y-2.05
X3.1Y-2.3
X3.1Y-2.45
X3.1Y-2.75
X3.1Y-2.9
X3.1Y-3.3
X3.1Y-3.6
X3.1Y-3.8
X3.1Y-3.95
X3.1Y-4.25
X3.1Y-4.4
X3.2Y-0.95
X3.2Y-1.25
X3.2Y-1.75
X3.2Y-2.05
X3.2Y-2.3
X3.2Y-2.45
X3.2Y-2.75
X3.2Y-2.9
X3.2Y-3.8
X3.2Y-4.4
X3.3Y-0.8
X3.3Y-0.95
X3.3Y-1.25
X3.3Y-1.4
X3.3Y-1.75
X3.3Y-2.05
X3.3Y-2.3
X3.3Y-2.45
X3.3Y-2.75
X3.3Y-2.9
X3.3Y-3.8
X3.3Y-4.4
X3.4Y-0.8
X3.4Y-0.95
X3.4Y-1.25
X3.4Y-1.4
X3.4Y-1.75
X3.4Y-2.05
X3.4Y-2.3
X3.4Y-2.45
X3.4Y-2.75
X3.4Y-2.9
X3.4Y-3.3
X3.4Y-3.6
X3.4Y-3.8
X3.4Y-3.95
X3.4Y-4.25
X3.4Y-4.4
X3.5Y-0.8
X3.5Y-0.95
X3.5Y-1.25
X3.5Y-1.4
X3.5Y-1.75
X3.5Y-2.05
X3.5Y-2.3
X3.5Y-2.45
X3.5Y-2.75
X3.5Y-2.9
X3.5Y-3.3
X3.5Y-3.6
X3.5Y-3.8
X3.5Y-3.95
X3.5Y-4.25
X3.5Y-4.4
X3.6Y-0.8
X3.6Y-0.95
X3.6Y-1.25
X3.6Y-1.4
X3.6Y-1.75
X3.6Y-2.05
X3.6Y-2.3
X3.6Y-2.45
X3.6Y-2.75
X3.6Y-2.9
X3.6Y-3.3
X3.6Y-3.6
X3.6Y-3.8
X3.6Y-3.95
X3.6Y-4.25
X3.6Y-4.4
X3.7Y-0.8
X3.7Y-1.4
X3.7Y-2.3
X3.7Y-2.9
X3.7Y-3.3
X3.7Y-3.6
X3.7Y-3.8
X3.7Y-3.95
X3.7Y-4.25
X3.7Y-4.4
X3.8Y-0.8
X3.8Y-1.4
X3.8Y-2.3
X3.8Y-2.9
X3.8Y-3.3
X3.8Y-3.6
X3.8Y-3.8
X3.8Y-3.95
X3.8Y-4.25
X3.8Y-4.4
X3.9Y-0.8
X3.9Y-0.95
X3.9Y-1.25
X3.9Y-1.4
X3.9Y-1.75
X3.9Y-2.05
X3.9Y-2.3
X3.9Y-2.45
X3.9Y-2.75
X3.9Y-2.9
X3.9Y-3.3
X3.9Y-3.6
X3.9Y-3.8
X3.9Y-3.95
X3.9Y-4.25
X3.9Y-4.4
X4.Y-0.8
X4.Y-0.95
X4.Y-1.25
X4.Y-1.4
X4.Y-1.75
X4.Y-2.05
X4.Y-2.3
X4.Y-2.45
X4.Y-2.75
X4.Y-2.9
X4.Y-3.3
X4.Y-3.6
X4.Y-3.8
X4.Y-3.95
X4.Y-4.25
X4.Y-4.4
X4.1Y-0.8
X4.1Y-0.95
X4.1Y-1.25
X4.1Y-1.4
X4.1Y-1.75
X4.1Y-2.05
X4.1Y-2.3
X4.1Y-2.45
X4.1Y-2.75
X4.1Y-2.9
X4.1Y-3.3
X4.1Y-3.6
X4.1Y-3.8
X4.1Y-3.95
X4.1Y-4.25
X4.1Y-4.4
X4.2Y-0.8
X4.2Y-0.95
X4.2Y-1.25
X4.2Y-1.4
X4.2Y-1.75
X4.2Y-2.05
X4.2Y-2.3
X4.2Y-2.45
X4.2Y-2.75
X4.2Y-2.9
X4.2Y-3.8
X4.2Y-4.4
X4.3Y-0.95
X4.3Y-1.25
X4.3Y-1.75
X4.3Y-2.05
X4.3Y-2.3
X4.3Y-2.45
X4.3Y-2.75
X4.3Y-2.9
X4.3Y-3.8
X4.3Y-4.4
X4.4Y-0.95
X4.4Y-1.25
X4.4Y-1.75
X4.4Y-2.05
X4.4Y-2.3
X4.4Y-2.45
X4.4Y-2.75
X4.4Y-2.9
X4.4Y-3.3
X4.4Y-3.6
X4.4Y-3.8
X4.4Y-3.95
X4.4Y-4.25
X4.4Y-4.4
X4.5Y-0.95
X4.5Y-1.25
X4.5Y-1.75
X4.5Y-2.05
X4.5Y-2.3
X4.5Y-2.45
X4.5Y-2.75
X4.5Y-2.9
X4.5Y-3.3
X4.5Y-3.6
X4.5Y-3.8
X4.5Y-3.95
X4.5Y-4.25
X4.5Y-4.4
X4.6Y-0.95
X4.6Y-1.25
X4.6Y-1.75
X4.6Y-2.05
X4.6Y-2.3
X4.6Y-2.45
X4.6Y-2.75
X4.6Y-2.9
X4.6Y-3.3
X4.6Y-3.6
X4.6Y-3.8
X4.6Y-3.95
X4.6Y-4.25
X4.6Y-4.4
X4.7Y-2.3
X4.7Y-2.9
X4.7Y-3.3
X4.7Y-3.6
X4.7Y-3.8
X4.7Y-3.95
X4.7Y-4.25
X4.7Y-4.4
X4.8Y-3.3
X4.8Y-3.6
X4.8Y-3.8
X4.8Y-3.95
X4.8Y-4.25
X4.8Y-4.4
X4.9Y-3.3
X4.9Y-3.6
X4.9Y-3.8
X4.9Y-3.95
X4.9Y-4.25
X4.9Y-4.4
X5.Y-3.3
X5.Y-3.6
X5.Y-3.8
X5.Y-3.95
X5.Y-4.25
X5.Y-4.4
X5.1Y-3.3
X5.1Y-3.6
X5.1Y-3.8
X5.1Y-3.95
X5.1Y-4.25
X5.1Y-4.4
X5.2Y-3.8
X5.2Y-4.4
T3
X2.05Y-3.1
X2.05Y-3.2
X2.05Y-3.3
X2.05Y-3.4
X2.05Y-3.5
X2.05Y-3.6
X2.1Y-1.
X2.1Y-1.1
X2.1Y-1.2
X2.1Y-1.3
X2.1Y-1.4
X2.1Y-1.5
X2.1Y-1.6
X2.1Y-1.7
X2.2Y-1.
X2.2Y-1.1
X2.2Y-1.2
X2.2Y-1.3
X2.2Y-1.4
X2.2Y-1.5
X2.2Y-1.6
X2.2Y-1.7
T0
M30
