G04 #@! TF.FileFunction,Soldermask,Bot*
%FSLAX46Y46*%
G04 Gerber Fmt 4.6, Leading zero omitted, Abs format (unit mm)*
G04 Created by KiCad (PCBNEW 4.0.4-stable) date Mon May  7 18:27:46 2018*
%MOMM*%
%LPD*%
G01*
G04 APERTURE LIST*
%ADD10C,0.100000*%
%ADD11R,1.727200X1.727200*%
%ADD12O,1.727200X1.727200*%
%ADD13R,2.032000X1.727200*%
%ADD14O,2.032000X1.727200*%
%ADD15O,1.600000X1.600000*%
%ADD16R,1.700000X1.700000*%
%ADD17O,1.700000X1.700000*%
%ADD18O,2.032000X2.540000*%
%ADD19R,1.397000X1.397000*%
%ADD20C,1.397000*%
G04 APERTURE END LIST*
D10*
D11*
X182397000Y-74168000D03*
D12*
X179857000Y-74168000D03*
X182397000Y-71628000D03*
X179857000Y-71628000D03*
X182397000Y-69088000D03*
X179857000Y-69088000D03*
X182397000Y-66548000D03*
X179857000Y-66548000D03*
X182397000Y-64008000D03*
X179857000Y-64008000D03*
X182397000Y-61468000D03*
X179857000Y-61468000D03*
X182397000Y-58928000D03*
X179857000Y-58928000D03*
X182397000Y-56388000D03*
X179857000Y-56388000D03*
X182397000Y-53848000D03*
X179857000Y-53848000D03*
X182397000Y-51308000D03*
X179857000Y-51308000D03*
X182397000Y-48768000D03*
X179857000Y-48768000D03*
X182397000Y-46228000D03*
X179857000Y-46228000D03*
X182397000Y-43688000D03*
X179857000Y-43688000D03*
X182397000Y-41148000D03*
X179857000Y-41148000D03*
X182397000Y-38608000D03*
X179857000Y-38608000D03*
D11*
X182194000Y-124892000D03*
D12*
X179654000Y-124892000D03*
X182194000Y-122352000D03*
X179654000Y-122352000D03*
X182194000Y-119812000D03*
X179654000Y-119812000D03*
X182194000Y-117272000D03*
X179654000Y-117272000D03*
X182194000Y-114732000D03*
X179654000Y-114732000D03*
X182194000Y-112192000D03*
X179654000Y-112192000D03*
X182194000Y-109652000D03*
X179654000Y-109652000D03*
X182194000Y-107112000D03*
X179654000Y-107112000D03*
X182194000Y-104572000D03*
X179654000Y-104572000D03*
X182194000Y-102032000D03*
X179654000Y-102032000D03*
X182194000Y-99492000D03*
X179654000Y-99492000D03*
X182194000Y-96952000D03*
X179654000Y-96952000D03*
X182194000Y-94412000D03*
X179654000Y-94412000D03*
X182194000Y-91872000D03*
X179654000Y-91872000D03*
X182194000Y-89332000D03*
X179654000Y-89332000D03*
D11*
X100051000Y-45542200D03*
D12*
X102591000Y-45542200D03*
X100051000Y-48082200D03*
X102591000Y-48082200D03*
X100051000Y-50622200D03*
X102591000Y-50622200D03*
X100051000Y-53162200D03*
X102591000Y-53162200D03*
X100051000Y-55702200D03*
X102591000Y-55702200D03*
X100051000Y-58242200D03*
X102591000Y-58242200D03*
X100051000Y-60782200D03*
X102591000Y-60782200D03*
X100051000Y-63322200D03*
X102591000Y-63322200D03*
D11*
X138354000Y-36804600D03*
D12*
X138354000Y-39344600D03*
X135814000Y-36804600D03*
X135814000Y-39344600D03*
X133274000Y-36804600D03*
X133274000Y-39344600D03*
X130734000Y-36804600D03*
X130734000Y-39344600D03*
X128194000Y-36804600D03*
X128194000Y-39344600D03*
X125654000Y-36804600D03*
X125654000Y-39344600D03*
X123114000Y-36804600D03*
X123114000Y-39344600D03*
X120574000Y-36804600D03*
X120574000Y-39344600D03*
D13*
X110134000Y-35483800D03*
D14*
X110134000Y-38023800D03*
X110134000Y-40563800D03*
D15*
X173355000Y-77698600D03*
X173355000Y-75158600D03*
X173355000Y-72618600D03*
X173355000Y-70078600D03*
X173355000Y-67538600D03*
X173355000Y-64998600D03*
X173355000Y-62458600D03*
X173355000Y-59918600D03*
X165735000Y-59918600D03*
X165735000Y-62458600D03*
X165735000Y-64998600D03*
X165735000Y-67538600D03*
X165735000Y-70078600D03*
X165735000Y-72618600D03*
X165735000Y-75158600D03*
X165735000Y-77698600D03*
X158420000Y-53441600D03*
X158420000Y-50901600D03*
X158420000Y-48361600D03*
X158420000Y-45821600D03*
X158420000Y-43281600D03*
X158420000Y-40741600D03*
X158420000Y-38201600D03*
X158420000Y-35661600D03*
X150800000Y-35661600D03*
X150800000Y-38201600D03*
X150800000Y-40741600D03*
X150800000Y-43281600D03*
X150800000Y-45821600D03*
X150800000Y-48361600D03*
X150800000Y-50901600D03*
X150800000Y-53441600D03*
X158420000Y-77673200D03*
X158420000Y-75133200D03*
X158420000Y-72593200D03*
X158420000Y-70053200D03*
X158420000Y-67513200D03*
X158420000Y-64973200D03*
X158420000Y-62433200D03*
X158420000Y-59893200D03*
X150800000Y-59893200D03*
X150800000Y-62433200D03*
X150800000Y-64973200D03*
X150800000Y-67513200D03*
X150800000Y-70053200D03*
X150800000Y-72593200D03*
X150800000Y-75133200D03*
X150800000Y-77673200D03*
X173355000Y-53517800D03*
X173355000Y-50977800D03*
X173355000Y-48437800D03*
X173355000Y-45897800D03*
X173355000Y-43357800D03*
X173355000Y-40817800D03*
X173355000Y-38277800D03*
X173355000Y-35737800D03*
X165735000Y-35737800D03*
X165735000Y-38277800D03*
X165735000Y-40817800D03*
X165735000Y-43357800D03*
X165735000Y-45897800D03*
X165735000Y-48437800D03*
X165735000Y-50977800D03*
X165735000Y-53517800D03*
X173355000Y-128016000D03*
X173355000Y-125476000D03*
X173355000Y-122936000D03*
X173355000Y-120396000D03*
X173355000Y-117856000D03*
X173355000Y-115316000D03*
X173355000Y-112776000D03*
X173355000Y-110236000D03*
X165735000Y-110236000D03*
X165735000Y-112776000D03*
X165735000Y-115316000D03*
X165735000Y-117856000D03*
X165735000Y-120396000D03*
X165735000Y-122936000D03*
X165735000Y-125476000D03*
X165735000Y-128016000D03*
X159131000Y-127965000D03*
X159131000Y-125425000D03*
X159131000Y-122885000D03*
X159131000Y-120345000D03*
X159131000Y-117805000D03*
X159131000Y-115265000D03*
X159131000Y-112725000D03*
X159131000Y-110185000D03*
X151511000Y-110185000D03*
X151511000Y-112725000D03*
X151511000Y-115265000D03*
X151511000Y-117805000D03*
X151511000Y-120345000D03*
X151511000Y-122885000D03*
X151511000Y-125425000D03*
X151511000Y-127965000D03*
X173355000Y-103759000D03*
X173355000Y-101219000D03*
X173355000Y-98679000D03*
X173355000Y-96139000D03*
X173355000Y-93599000D03*
X173355000Y-91059000D03*
X173355000Y-88519000D03*
X173355000Y-85979000D03*
X165735000Y-85979000D03*
X165735000Y-88519000D03*
X165735000Y-91059000D03*
X165735000Y-93599000D03*
X165735000Y-96139000D03*
X165735000Y-98679000D03*
X165735000Y-101219000D03*
X165735000Y-103759000D03*
D16*
X96977200Y-99364800D03*
D17*
X96977200Y-73964800D03*
X99517200Y-99364800D03*
X99517200Y-73964800D03*
X102057200Y-99364800D03*
X102057200Y-73964800D03*
X104597200Y-99364800D03*
X104597200Y-73964800D03*
X107137200Y-99364800D03*
X107137200Y-73964800D03*
X109677200Y-99364800D03*
X109677200Y-73964800D03*
X112217200Y-99364800D03*
X112217200Y-73964800D03*
X114757200Y-99364800D03*
X114757200Y-73964800D03*
X117297200Y-99364800D03*
X117297200Y-73964800D03*
X119837200Y-99364800D03*
X119837200Y-73964800D03*
X122377200Y-99364800D03*
X122377200Y-73964800D03*
X124917200Y-99364800D03*
X124917200Y-73964800D03*
X127457200Y-99364800D03*
X127457200Y-73964800D03*
X129997200Y-99364800D03*
X129997200Y-73964800D03*
X132537200Y-99364800D03*
X132537200Y-73964800D03*
X135077200Y-99364800D03*
X135077200Y-73964800D03*
X137617200Y-99364800D03*
X137617200Y-73964800D03*
X140157200Y-99364800D03*
X140157200Y-73964800D03*
X142697200Y-99364800D03*
X142697200Y-73964800D03*
D15*
X133325000Y-47675800D03*
X133325000Y-50215800D03*
X133325000Y-52755800D03*
X133325000Y-55295800D03*
X133325000Y-57835800D03*
X133325000Y-60375800D03*
X133325000Y-62915800D03*
X133325000Y-65455800D03*
X140945000Y-65455800D03*
X140945000Y-62915800D03*
X140945000Y-60375800D03*
X140945000Y-57835800D03*
X140945000Y-55295800D03*
X140945000Y-52755800D03*
X140945000Y-50215800D03*
X140945000Y-47675800D03*
X119355000Y-47726600D03*
X119355000Y-50266600D03*
X119355000Y-52806600D03*
X119355000Y-55346600D03*
X119355000Y-57886600D03*
X119355000Y-60426600D03*
X119355000Y-62966600D03*
X119355000Y-65506600D03*
X126975000Y-65506600D03*
X126975000Y-62966600D03*
X126975000Y-60426600D03*
X126975000Y-57886600D03*
X126975000Y-55346600D03*
X126975000Y-52806600D03*
X126975000Y-50266600D03*
X126975000Y-47726600D03*
D18*
X104877000Y-115164000D03*
X107417000Y-115164000D03*
X102337000Y-115164000D03*
X130581000Y-106426000D03*
X133121000Y-106426000D03*
X128041000Y-106426000D03*
D19*
X139497000Y-104191000D03*
D20*
X139497000Y-106731000D03*
X139497000Y-109271000D03*
D11*
X95783400Y-105283000D03*
D12*
X98323400Y-105283000D03*
X95783400Y-107823000D03*
X98323400Y-107823000D03*
M02*
