M48
;DRILL file {KiCad 4.0.4-stable} date Mon May  7 18:27:42 2018
;FORMAT={-:-/ absolute / inch / decimal}
FMAT,2
INCH,TZ
T1C0.012
T2C0.016
T3C0.031
T4C0.032
T5C0.039
T6C0.040
T7C0.045
%
G90
G05
M72
T1
X4.0927Y-3.9857
X4.2542Y-4.3177
X4.3626Y-4.1485
X4.4023Y-4.3228
X4.4966Y-4.235
X4.4993Y-4.1939
T2
X4.064Y-4.2943
X4.248Y-4.252
X4.3437Y-2.2967
X4.3888Y-4.2532
X4.7247Y-1.7579
X4.7862Y-1.6955
X4.7893Y-1.7324
X5.2566Y-3.5673
X5.2754Y-3.757
X5.2814Y-3.5236
X5.8334Y-2.1119
X5.8851Y-3.8618
X5.9714Y-3.585
X6.4005Y-3.1717
X6.4294Y-4.2307
X6.4294Y-4.366
X6.4469Y-3.6121
X6.567Y-2.2668
X6.6036Y-3.9179
X6.9875Y-2.7147
T3
X4.699Y-1.879
X4.699Y-1.979
X4.699Y-2.079
X4.699Y-2.179
X4.699Y-2.279
X4.699Y-2.379
X4.699Y-2.479
X4.699Y-2.579
X4.999Y-1.879
X4.999Y-1.979
X4.999Y-2.079
X4.999Y-2.179
X4.999Y-2.279
X4.999Y-2.379
X4.999Y-2.479
X4.999Y-2.579
X5.249Y-1.877
X5.249Y-1.977
X5.249Y-2.077
X5.249Y-2.177
X5.249Y-2.277
X5.249Y-2.377
X5.249Y-2.477
X5.249Y-2.577
X5.549Y-1.877
X5.549Y-1.977
X5.549Y-2.077
X5.549Y-2.177
X5.549Y-2.277
X5.549Y-2.377
X5.549Y-2.477
X5.549Y-2.577
X5.937Y-1.404
X5.937Y-1.504
X5.937Y-1.604
X5.937Y-1.704
X5.937Y-1.804
X5.937Y-1.904
X5.937Y-2.004
X5.937Y-2.104
X5.937Y-2.358
X5.937Y-2.458
X5.937Y-2.558
X5.937Y-2.658
X5.937Y-2.758
X5.937Y-2.858
X5.937Y-2.958
X5.937Y-3.058
X5.965Y-4.338
X5.965Y-4.438
X5.965Y-4.538
X5.965Y-4.638
X5.965Y-4.738
X5.965Y-4.838
X5.965Y-4.938
X5.965Y-5.038
X6.237Y-1.404
X6.237Y-1.504
X6.237Y-1.604
X6.237Y-1.704
X6.237Y-1.804
X6.237Y-1.904
X6.237Y-2.004
X6.237Y-2.104
X6.237Y-2.358
X6.237Y-2.458
X6.237Y-2.558
X6.237Y-2.658
X6.237Y-2.758
X6.237Y-2.858
X6.237Y-2.958
X6.237Y-3.058
X6.265Y-4.338
X6.265Y-4.438
X6.265Y-4.538
X6.265Y-4.638
X6.265Y-4.738
X6.265Y-4.838
X6.265Y-4.938
X6.265Y-5.038
X6.525Y-1.407
X6.525Y-1.507
X6.525Y-1.607
X6.525Y-1.707
X6.525Y-1.807
X6.525Y-1.907
X6.525Y-2.007
X6.525Y-2.107
X6.525Y-2.359
X6.525Y-2.459
X6.525Y-2.559
X6.525Y-2.659
X6.525Y-2.759
X6.525Y-2.859
X6.525Y-2.959
X6.525Y-3.059
X6.525Y-3.385
X6.525Y-3.485
X6.525Y-3.585
X6.525Y-3.685
X6.525Y-3.785
X6.525Y-3.885
X6.525Y-3.985
X6.525Y-4.085
X6.525Y-4.34
X6.525Y-4.44
X6.525Y-4.54
X6.525Y-4.64
X6.525Y-4.74
X6.525Y-4.84
X6.525Y-4.94
X6.525Y-5.04
X6.825Y-1.407
X6.825Y-1.507
X6.825Y-1.607
X6.825Y-1.707
X6.825Y-1.807
X6.825Y-1.907
X6.825Y-2.007
X6.825Y-2.107
X6.825Y-2.359
X6.825Y-2.459
X6.825Y-2.559
X6.825Y-2.659
X6.825Y-2.759
X6.825Y-2.859
X6.825Y-2.959
X6.825Y-3.059
X6.825Y-3.385
X6.825Y-3.485
X6.825Y-3.585
X6.825Y-3.685
X6.825Y-3.785
X6.825Y-3.885
X6.825Y-3.985
X6.825Y-4.085
X6.825Y-4.34
X6.825Y-4.44
X6.825Y-4.54
X6.825Y-4.64
X6.825Y-4.74
X6.825Y-4.84
X6.825Y-4.94
X6.825Y-5.04
T4
X5.492Y-4.102
X5.492Y-4.202
X5.492Y-4.302
T5
X3.818Y-2.912
X3.818Y-3.912
X3.918Y-2.912
X3.918Y-3.912
X4.018Y-2.912
X4.018Y-3.912
X4.118Y-2.912
X4.118Y-3.912
X4.218Y-2.912
X4.218Y-3.912
X4.318Y-2.912
X4.318Y-3.912
X4.418Y-2.912
X4.418Y-3.912
X4.518Y-2.912
X4.518Y-3.912
X4.618Y-2.912
X4.618Y-3.912
X4.718Y-2.912
X4.718Y-3.912
X4.818Y-2.912
X4.818Y-3.912
X4.918Y-2.912
X4.918Y-3.912
X5.018Y-2.912
X5.018Y-3.912
X5.118Y-2.912
X5.118Y-3.912
X5.218Y-2.912
X5.218Y-3.912
X5.318Y-2.912
X5.318Y-3.912
X5.418Y-2.912
X5.418Y-3.912
X5.518Y-2.912
X5.518Y-3.912
X5.618Y-2.912
X5.618Y-3.912
T6
X3.771Y-4.145
X3.771Y-4.245
X3.871Y-4.145
X3.871Y-4.245
X3.939Y-1.793
X3.939Y-1.893
X3.939Y-1.993
X3.939Y-2.093
X3.939Y-2.193
X3.939Y-2.293
X3.939Y-2.393
X3.939Y-2.493
X4.039Y-1.793
X4.039Y-1.893
X4.039Y-1.993
X4.039Y-2.093
X4.039Y-2.193
X4.039Y-2.293
X4.039Y-2.393
X4.039Y-2.493
X4.336Y-1.397
X4.336Y-1.497
X4.336Y-1.597
X4.747Y-1.449
X4.747Y-1.549
X4.847Y-1.449
X4.847Y-1.549
X4.947Y-1.449
X4.947Y-1.549
X5.047Y-1.449
X5.047Y-1.549
X5.147Y-1.449
X5.147Y-1.549
X5.247Y-1.449
X5.247Y-1.549
X5.347Y-1.449
X5.347Y-1.549
X5.447Y-1.449
X5.447Y-1.549
X7.073Y-3.517
X7.073Y-3.617
X7.073Y-3.717
X7.073Y-3.817
X7.073Y-3.917
X7.073Y-4.017
X7.073Y-4.117
X7.073Y-4.217
X7.073Y-4.317
X7.073Y-4.417
X7.073Y-4.517
X7.073Y-4.617
X7.073Y-4.717
X7.073Y-4.817
X7.073Y-4.917
X7.081Y-1.52
X7.081Y-1.62
X7.081Y-1.72
X7.081Y-1.82
X7.081Y-1.92
X7.081Y-2.02
X7.081Y-2.12
X7.081Y-2.22
X7.081Y-2.32
X7.081Y-2.42
X7.081Y-2.52
X7.081Y-2.62
X7.081Y-2.72
X7.081Y-2.82
X7.081Y-2.92
X7.173Y-3.517
X7.173Y-3.617
X7.173Y-3.717
X7.173Y-3.817
X7.173Y-3.917
X7.173Y-4.017
X7.173Y-4.117
X7.173Y-4.217
X7.173Y-4.317
X7.173Y-4.417
X7.173Y-4.517
X7.173Y-4.617
X7.173Y-4.717
X7.173Y-4.817
X7.173Y-4.917
X7.181Y-1.52
X7.181Y-1.62
X7.181Y-1.72
X7.181Y-1.82
X7.181Y-1.92
X7.181Y-2.02
X7.181Y-2.12
X7.181Y-2.22
X7.181Y-2.32
X7.181Y-2.42
X7.181Y-2.52
X7.181Y-2.62
X7.181Y-2.72
X7.181Y-2.82
X7.181Y-2.92
T7
X4.029Y-4.534
X4.129Y-4.534
X4.229Y-4.534
X5.041Y-4.19
X5.141Y-4.19
X5.241Y-4.19
T0
M30
