G04 #@! TF.FileFunction,Legend,Top*
%FSLAX46Y46*%
G04 Gerber Fmt 4.6, Leading zero omitted, Abs format (unit mm)*
G04 Created by KiCad (PCBNEW 4.0.4-stable) date Mon May  7 18:27:46 2018*
%MOMM*%
%LPD*%
G01*
G04 APERTURE LIST*
%ADD10C,0.100000*%
%ADD11C,0.150000*%
%ADD12C,0.120000*%
G04 APERTURE END LIST*
D10*
D11*
X176577000Y-79248000D02*
X176577000Y-33528000D01*
X177127000Y-78708000D02*
X177127000Y-34088000D01*
X185677000Y-79248000D02*
X185677000Y-33528000D01*
X185127000Y-78708000D02*
X185127000Y-58638000D01*
X185127000Y-54138000D02*
X185127000Y-34088000D01*
X185127000Y-58638000D02*
X185677000Y-58638000D01*
X185127000Y-54138000D02*
X185677000Y-54138000D01*
X176577000Y-79248000D02*
X185677000Y-79248000D01*
X177127000Y-78708000D02*
X185127000Y-78708000D01*
X176577000Y-33528000D02*
X185677000Y-33528000D01*
X177127000Y-34088000D02*
X185127000Y-34088000D01*
X176577000Y-79248000D02*
X177127000Y-78708000D01*
X176577000Y-33528000D02*
X177127000Y-34088000D01*
X185677000Y-79248000D02*
X185127000Y-78708000D01*
X185677000Y-33528000D02*
X185127000Y-34088000D01*
X176374000Y-129972000D02*
X176374000Y-84252000D01*
X176924000Y-129432000D02*
X176924000Y-84812000D01*
X185474000Y-129972000D02*
X185474000Y-84252000D01*
X184924000Y-129432000D02*
X184924000Y-109362000D01*
X184924000Y-104862000D02*
X184924000Y-84812000D01*
X184924000Y-109362000D02*
X185474000Y-109362000D01*
X184924000Y-104862000D02*
X185474000Y-104862000D01*
X176374000Y-129972000D02*
X185474000Y-129972000D01*
X176924000Y-129432000D02*
X184924000Y-129432000D01*
X176374000Y-84252000D02*
X185474000Y-84252000D01*
X176924000Y-84812000D02*
X184924000Y-84812000D01*
X176374000Y-129972000D02*
X176924000Y-129432000D01*
X176374000Y-84252000D02*
X176924000Y-84812000D01*
X185474000Y-129972000D02*
X184924000Y-129432000D01*
X185474000Y-84252000D02*
X184924000Y-84812000D01*
X105871000Y-40462200D02*
X105871000Y-68402200D01*
X105321000Y-41002200D02*
X105321000Y-67842200D01*
X96771000Y-40462200D02*
X96771000Y-68402200D01*
X97321000Y-41002200D02*
X97321000Y-52182200D01*
X97321000Y-56682200D02*
X97321000Y-67842200D01*
X97321000Y-52182200D02*
X96771000Y-52182200D01*
X97321000Y-56682200D02*
X96771000Y-56682200D01*
X105871000Y-40462200D02*
X96771000Y-40462200D01*
X105321000Y-41002200D02*
X97321000Y-41002200D01*
X105871000Y-68402200D02*
X96771000Y-68402200D01*
X105321000Y-67842200D02*
X97321000Y-67842200D01*
X105871000Y-40462200D02*
X105321000Y-41002200D01*
X105871000Y-68402200D02*
X105321000Y-67842200D01*
X96771000Y-40462200D02*
X97321000Y-41002200D01*
X96771000Y-68402200D02*
X97321000Y-67842200D01*
X143434000Y-42624600D02*
X115494000Y-42624600D01*
X142894000Y-42074600D02*
X116054000Y-42074600D01*
X143434000Y-33524600D02*
X115494000Y-33524600D01*
X142894000Y-34074600D02*
X131714000Y-34074600D01*
X127214000Y-34074600D02*
X116054000Y-34074600D01*
X131714000Y-34074600D02*
X131714000Y-33524600D01*
X127214000Y-34074600D02*
X127214000Y-33524600D01*
X143434000Y-42624600D02*
X143434000Y-33524600D01*
X142894000Y-42074600D02*
X142894000Y-34074600D01*
X115494000Y-42624600D02*
X115494000Y-33524600D01*
X116054000Y-42074600D02*
X116054000Y-34074600D01*
X143434000Y-42624600D02*
X142894000Y-42074600D01*
X115494000Y-42624600D02*
X116054000Y-42074600D01*
X143434000Y-33524600D02*
X142894000Y-34074600D01*
X115494000Y-33524600D02*
X116054000Y-34074600D01*
X108864000Y-36753800D02*
X108864000Y-41833800D01*
X108864000Y-41833800D02*
X111404000Y-41833800D01*
X111404000Y-41833800D02*
X111404000Y-36753800D01*
X111684000Y-33933800D02*
X111684000Y-35483800D01*
X111404000Y-36753800D02*
X108864000Y-36753800D01*
X108584000Y-35483800D02*
X108584000Y-33933800D01*
X108584000Y-33933800D02*
X111684000Y-33933800D01*
X173220000Y-79993600D02*
X173220000Y-78723600D01*
X165870000Y-79993600D02*
X165870000Y-78723600D01*
X165870000Y-57623600D02*
X165870000Y-58893600D01*
X173220000Y-57623600D02*
X173220000Y-58893600D01*
X173220000Y-79993600D02*
X165870000Y-79993600D01*
X173220000Y-57623600D02*
X165870000Y-57623600D01*
X173220000Y-78723600D02*
X174155000Y-78723600D01*
X158285000Y-55736600D02*
X158285000Y-54466600D01*
X150935000Y-55736600D02*
X150935000Y-54466600D01*
X150935000Y-33366600D02*
X150935000Y-34636600D01*
X158285000Y-33366600D02*
X158285000Y-34636600D01*
X158285000Y-55736600D02*
X150935000Y-55736600D01*
X158285000Y-33366600D02*
X150935000Y-33366600D01*
X158285000Y-54466600D02*
X159220000Y-54466600D01*
X158285000Y-79968200D02*
X158285000Y-78698200D01*
X150935000Y-79968200D02*
X150935000Y-78698200D01*
X150935000Y-57598200D02*
X150935000Y-58868200D01*
X158285000Y-57598200D02*
X158285000Y-58868200D01*
X158285000Y-79968200D02*
X150935000Y-79968200D01*
X158285000Y-57598200D02*
X150935000Y-57598200D01*
X158285000Y-78698200D02*
X159220000Y-78698200D01*
X173220000Y-55812800D02*
X173220000Y-54542800D01*
X165870000Y-55812800D02*
X165870000Y-54542800D01*
X165870000Y-33442800D02*
X165870000Y-34712800D01*
X173220000Y-33442800D02*
X173220000Y-34712800D01*
X173220000Y-55812800D02*
X165870000Y-55812800D01*
X173220000Y-33442800D02*
X165870000Y-33442800D01*
X173220000Y-54542800D02*
X174155000Y-54542800D01*
X173220000Y-130311000D02*
X173220000Y-129041000D01*
X165870000Y-130311000D02*
X165870000Y-129041000D01*
X165870000Y-107941000D02*
X165870000Y-109211000D01*
X173220000Y-107941000D02*
X173220000Y-109211000D01*
X173220000Y-130311000D02*
X165870000Y-130311000D01*
X173220000Y-107941000D02*
X165870000Y-107941000D01*
X173220000Y-129041000D02*
X174155000Y-129041000D01*
X158996000Y-130260000D02*
X158996000Y-128990000D01*
X151646000Y-130260000D02*
X151646000Y-128990000D01*
X151646000Y-107890000D02*
X151646000Y-109160000D01*
X158996000Y-107890000D02*
X158996000Y-109160000D01*
X158996000Y-130260000D02*
X151646000Y-130260000D01*
X158996000Y-107890000D02*
X151646000Y-107890000D01*
X158996000Y-128990000D02*
X159931000Y-128990000D01*
X173220000Y-106054000D02*
X173220000Y-104784000D01*
X165870000Y-106054000D02*
X165870000Y-104784000D01*
X165870000Y-83684000D02*
X165870000Y-84954000D01*
X173220000Y-83684000D02*
X173220000Y-84954000D01*
X173220000Y-106054000D02*
X165870000Y-106054000D01*
X173220000Y-83684000D02*
X165870000Y-83684000D01*
X173220000Y-104784000D02*
X174155000Y-104784000D01*
X113563000Y-105944000D02*
X113563000Y-106444000D01*
X110313000Y-109194000D02*
X110313000Y-108694000D01*
X113563000Y-109194000D02*
X113563000Y-108694000D01*
X110313000Y-105944000D02*
X110813000Y-105944000D01*
X110313000Y-109194000D02*
X110813000Y-109194000D01*
X113563000Y-109194000D02*
X113063000Y-109194000D01*
X113563000Y-105944000D02*
X113063000Y-105944000D01*
D12*
X143977200Y-98094800D02*
X98267200Y-98094800D01*
X144027200Y-100694800D02*
X144027200Y-72644800D01*
X98247200Y-100694800D02*
X144027200Y-100694800D01*
X95647200Y-72634800D02*
X144027200Y-72634800D01*
X98247200Y-100694800D02*
X98247200Y-98094800D01*
X143977200Y-75234800D02*
X95647200Y-75234800D01*
X95647200Y-75234800D02*
X95647200Y-72634800D01*
X96977200Y-100694800D02*
X95647200Y-100694800D01*
X95647200Y-100694800D02*
X95647200Y-99364800D01*
D11*
X133460000Y-45380800D02*
X133460000Y-46650800D01*
X140810000Y-45380800D02*
X140810000Y-46650800D01*
X140810000Y-67750800D02*
X140810000Y-66480800D01*
X133460000Y-67750800D02*
X133460000Y-66480800D01*
X133460000Y-45380800D02*
X140810000Y-45380800D01*
X133460000Y-67750800D02*
X140810000Y-67750800D01*
X133460000Y-46650800D02*
X132525000Y-46650800D01*
X119490000Y-45431600D02*
X119490000Y-46701600D01*
X126840000Y-45431600D02*
X126840000Y-46701600D01*
X126840000Y-67801600D02*
X126840000Y-66531600D01*
X119490000Y-67801600D02*
X119490000Y-66531600D01*
X119490000Y-45431600D02*
X126840000Y-45431600D01*
X119490000Y-67801600D02*
X126840000Y-67801600D01*
X119490000Y-46701600D02*
X118555000Y-46701600D01*
X117074000Y-106512000D02*
X117774000Y-106512000D01*
X117774000Y-107712000D02*
X117074000Y-107712000D01*
X105187000Y-107426000D02*
X105887000Y-107426000D01*
X105887000Y-108626000D02*
X105187000Y-108626000D01*
X117800000Y-104461000D02*
X117100000Y-104461000D01*
X117100000Y-103261000D02*
X117800000Y-103261000D01*
X117774000Y-109261000D02*
X117074000Y-109261000D01*
X117074000Y-108061000D02*
X117774000Y-108061000D01*
X105187000Y-105826000D02*
X105887000Y-105826000D01*
X105887000Y-107026000D02*
X105187000Y-107026000D01*
X123229000Y-111376000D02*
X112229000Y-111376000D01*
X112229000Y-123676000D02*
X123229000Y-123676000D01*
X123229000Y-123676000D02*
G75*
G03X123879000Y-123026000I0J650000D01*
G01*
X123879000Y-112026000D02*
G75*
G03X123229000Y-111376000I-650000J0D01*
G01*
X123879000Y-112026000D02*
X123879000Y-123026000D01*
X111579000Y-123026000D02*
G75*
G03X112229000Y-123676000I650000J0D01*
G01*
X111579000Y-112026000D02*
X111579000Y-123026000D01*
X112229000Y-111376000D02*
G75*
G03X111579000Y-112026000I0J-650000D01*
G01*
X109703000Y-113513000D02*
X109703000Y-116942000D01*
X100051000Y-113513000D02*
X100051000Y-116942000D01*
X110211000Y-112370000D02*
X99543000Y-112370000D01*
X106655000Y-113386000D02*
X106655000Y-112116000D01*
X103099000Y-113386000D02*
X103099000Y-112116000D01*
X99543000Y-113513000D02*
X110211000Y-113513000D01*
X110211000Y-116942000D02*
X99543000Y-116942000D01*
X99543000Y-112116000D02*
X99543000Y-116942000D01*
X110211000Y-112116000D02*
X110211000Y-116942000D01*
X110211000Y-112116000D02*
X99543000Y-112116000D01*
X135407000Y-104775000D02*
X135407000Y-108204000D01*
X125755000Y-104775000D02*
X125755000Y-108204000D01*
X135915000Y-103632000D02*
X125247000Y-103632000D01*
X132359000Y-104648000D02*
X132359000Y-103378000D01*
X128803000Y-104648000D02*
X128803000Y-103378000D01*
X125247000Y-104775000D02*
X135915000Y-104775000D01*
X135915000Y-108204000D02*
X125247000Y-108204000D01*
X125247000Y-103378000D02*
X125247000Y-108204000D01*
X135915000Y-103378000D02*
X135915000Y-108204000D01*
X135915000Y-103378000D02*
X125247000Y-103378000D01*
X111311000Y-101712000D02*
X112311000Y-101712000D01*
X112311000Y-103062000D02*
X111311000Y-103062000D01*
X105062000Y-104125000D02*
X106062000Y-104125000D01*
X106062000Y-105475000D02*
X105062000Y-105475000D01*
X117924000Y-106161000D02*
X116924000Y-106161000D01*
X116924000Y-104811000D02*
X117924000Y-104811000D01*
X105062000Y-102449000D02*
X106062000Y-102449000D01*
X106062000Y-103799000D02*
X105062000Y-103799000D01*
X106037000Y-110352000D02*
X105037000Y-110352000D01*
X105037000Y-109002000D02*
X106037000Y-109002000D01*
X95464000Y-92625800D02*
X95464000Y-91625800D01*
X96814000Y-91625800D02*
X96814000Y-92625800D01*
X138227000Y-102921000D02*
X140767000Y-102921000D01*
X140767000Y-102921000D02*
X140767000Y-110541000D01*
X140767000Y-110541000D02*
X138227000Y-110541000D01*
X138227000Y-110541000D02*
X138227000Y-102921000D01*
X140767000Y-105461000D02*
X138227000Y-105461000D01*
X95589000Y-87165000D02*
X95589000Y-89065000D01*
X96689000Y-87165000D02*
X96689000Y-89065000D01*
X96139000Y-88065000D02*
X96139000Y-88515000D01*
X96389000Y-88015000D02*
X95889000Y-88015000D01*
X96139000Y-88015000D02*
X96389000Y-88265000D01*
X96389000Y-88265000D02*
X95889000Y-88265000D01*
X95889000Y-88265000D02*
X96139000Y-88015000D01*
X96689000Y-85986800D02*
X96689000Y-84086800D01*
X95589000Y-85986800D02*
X95589000Y-84086800D01*
X96139000Y-85086800D02*
X96139000Y-84636800D01*
X95889000Y-85136800D02*
X96389000Y-85136800D01*
X96139000Y-85136800D02*
X95889000Y-84886800D01*
X95889000Y-84886800D02*
X96389000Y-84886800D01*
X96389000Y-84886800D02*
X96139000Y-85136800D01*
X94233400Y-105283000D02*
X94233400Y-103733000D01*
X95783400Y-103733000D02*
X94233400Y-103733000D01*
X94513400Y-106553000D02*
X97053400Y-106553000D01*
X97053400Y-106553000D02*
X97053400Y-104013000D01*
X97053400Y-104013000D02*
X99593400Y-104013000D01*
X99593400Y-104013000D02*
X99593400Y-109093000D01*
X99593400Y-109093000D02*
X94513400Y-109093000D01*
X94513400Y-109093000D02*
X94513400Y-106553000D01*
X178429781Y-57456295D02*
X177429781Y-57456295D01*
X177429781Y-57075342D01*
X177477400Y-56980104D01*
X177525019Y-56932485D01*
X177620257Y-56884866D01*
X177763114Y-56884866D01*
X177858352Y-56932485D01*
X177905971Y-56980104D01*
X177953590Y-57075342D01*
X177953590Y-57456295D01*
X178429781Y-55932485D02*
X178429781Y-56503914D01*
X178429781Y-56218200D02*
X177429781Y-56218200D01*
X177572638Y-56313438D01*
X177667876Y-56408676D01*
X177715495Y-56503914D01*
X178201381Y-107926295D02*
X177201381Y-107926295D01*
X177201381Y-107545342D01*
X177249000Y-107450104D01*
X177296619Y-107402485D01*
X177391857Y-107354866D01*
X177534714Y-107354866D01*
X177629952Y-107402485D01*
X177677571Y-107450104D01*
X177725190Y-107545342D01*
X177725190Y-107926295D01*
X177296619Y-106973914D02*
X177249000Y-106926295D01*
X177201381Y-106831057D01*
X177201381Y-106592961D01*
X177249000Y-106497723D01*
X177296619Y-106450104D01*
X177391857Y-106402485D01*
X177487095Y-106402485D01*
X177629952Y-106450104D01*
X178201381Y-107021533D01*
X178201381Y-106402485D01*
X104770581Y-54890895D02*
X103770581Y-54890895D01*
X103770581Y-54509942D01*
X103818200Y-54414704D01*
X103865819Y-54367085D01*
X103961057Y-54319466D01*
X104103914Y-54319466D01*
X104199152Y-54367085D01*
X104246771Y-54414704D01*
X104294390Y-54509942D01*
X104294390Y-54890895D01*
X104103914Y-53462323D02*
X104770581Y-53462323D01*
X103722962Y-53700419D02*
X104437248Y-53938514D01*
X104437248Y-53319466D01*
X128395705Y-41803581D02*
X128395705Y-40803581D01*
X128776658Y-40803581D01*
X128871896Y-40851200D01*
X128919515Y-40898819D01*
X128967134Y-40994057D01*
X128967134Y-41136914D01*
X128919515Y-41232152D01*
X128871896Y-41279771D01*
X128776658Y-41327390D01*
X128395705Y-41327390D01*
X129871896Y-40803581D02*
X129395705Y-40803581D01*
X129348086Y-41279771D01*
X129395705Y-41232152D01*
X129490943Y-41184533D01*
X129729039Y-41184533D01*
X129824277Y-41232152D01*
X129871896Y-41279771D01*
X129919515Y-41375010D01*
X129919515Y-41613105D01*
X129871896Y-41708343D01*
X129824277Y-41755962D01*
X129729039Y-41803581D01*
X129490943Y-41803581D01*
X129395705Y-41755962D01*
X129348086Y-41708343D01*
X112872381Y-38609495D02*
X111872381Y-38609495D01*
X111872381Y-38228542D01*
X111920000Y-38133304D01*
X111967619Y-38085685D01*
X112062857Y-38038066D01*
X112205714Y-38038066D01*
X112300952Y-38085685D01*
X112348571Y-38133304D01*
X112396190Y-38228542D01*
X112396190Y-38609495D01*
X111872381Y-37180923D02*
X111872381Y-37371400D01*
X111920000Y-37466638D01*
X111967619Y-37514257D01*
X112110476Y-37609495D01*
X112300952Y-37657114D01*
X112681905Y-37657114D01*
X112777143Y-37609495D01*
X112824762Y-37561876D01*
X112872381Y-37466638D01*
X112872381Y-37276161D01*
X112824762Y-37180923D01*
X112777143Y-37133304D01*
X112681905Y-37085685D01*
X112443810Y-37085685D01*
X112348571Y-37133304D01*
X112300952Y-37180923D01*
X112253333Y-37276161D01*
X112253333Y-37466638D01*
X112300952Y-37561876D01*
X112348571Y-37609495D01*
X112443810Y-37657114D01*
X168935495Y-58024781D02*
X168935495Y-58834305D01*
X168983114Y-58929543D01*
X169030733Y-58977162D01*
X169125971Y-59024781D01*
X169316448Y-59024781D01*
X169411686Y-58977162D01*
X169459305Y-58929543D01*
X169506924Y-58834305D01*
X169506924Y-58024781D01*
X170506924Y-59024781D02*
X169935495Y-59024781D01*
X170221209Y-59024781D02*
X170221209Y-58024781D01*
X170125971Y-58167638D01*
X170030733Y-58262876D01*
X169935495Y-58310495D01*
X153924295Y-33488381D02*
X153924295Y-34297905D01*
X153971914Y-34393143D01*
X154019533Y-34440762D01*
X154114771Y-34488381D01*
X154305248Y-34488381D01*
X154400486Y-34440762D01*
X154448105Y-34393143D01*
X154495724Y-34297905D01*
X154495724Y-33488381D01*
X154924295Y-33583619D02*
X154971914Y-33536000D01*
X155067152Y-33488381D01*
X155305248Y-33488381D01*
X155400486Y-33536000D01*
X155448105Y-33583619D01*
X155495724Y-33678857D01*
X155495724Y-33774095D01*
X155448105Y-33916952D01*
X154876676Y-34488381D01*
X155495724Y-34488381D01*
X154203695Y-57948581D02*
X154203695Y-58758105D01*
X154251314Y-58853343D01*
X154298933Y-58900962D01*
X154394171Y-58948581D01*
X154584648Y-58948581D01*
X154679886Y-58900962D01*
X154727505Y-58853343D01*
X154775124Y-58758105D01*
X154775124Y-57948581D01*
X155156076Y-57948581D02*
X155775124Y-57948581D01*
X155441790Y-58329533D01*
X155584648Y-58329533D01*
X155679886Y-58377152D01*
X155727505Y-58424771D01*
X155775124Y-58520010D01*
X155775124Y-58758105D01*
X155727505Y-58853343D01*
X155679886Y-58900962D01*
X155584648Y-58948581D01*
X155298933Y-58948581D01*
X155203695Y-58900962D01*
X155156076Y-58853343D01*
X169214895Y-33869381D02*
X169214895Y-34678905D01*
X169262514Y-34774143D01*
X169310133Y-34821762D01*
X169405371Y-34869381D01*
X169595848Y-34869381D01*
X169691086Y-34821762D01*
X169738705Y-34774143D01*
X169786324Y-34678905D01*
X169786324Y-33869381D01*
X170691086Y-34202714D02*
X170691086Y-34869381D01*
X170452990Y-33821762D02*
X170214895Y-34536048D01*
X170833943Y-34536048D01*
X168402095Y-108291381D02*
X168402095Y-109100905D01*
X168449714Y-109196143D01*
X168497333Y-109243762D01*
X168592571Y-109291381D01*
X168783048Y-109291381D01*
X168878286Y-109243762D01*
X168925905Y-109196143D01*
X168973524Y-109100905D01*
X168973524Y-108291381D01*
X169925905Y-108291381D02*
X169449714Y-108291381D01*
X169402095Y-108767571D01*
X169449714Y-108719952D01*
X169544952Y-108672333D01*
X169783048Y-108672333D01*
X169878286Y-108719952D01*
X169925905Y-108767571D01*
X169973524Y-108862810D01*
X169973524Y-109100905D01*
X169925905Y-109196143D01*
X169878286Y-109243762D01*
X169783048Y-109291381D01*
X169544952Y-109291381D01*
X169449714Y-109243762D01*
X169402095Y-109196143D01*
X154940095Y-108545181D02*
X154940095Y-109354705D01*
X154987714Y-109449943D01*
X155035333Y-109497562D01*
X155130571Y-109545181D01*
X155321048Y-109545181D01*
X155416286Y-109497562D01*
X155463905Y-109449943D01*
X155511524Y-109354705D01*
X155511524Y-108545181D01*
X156416286Y-108545181D02*
X156225809Y-108545181D01*
X156130571Y-108592800D01*
X156082952Y-108640419D01*
X155987714Y-108783276D01*
X155940095Y-108973752D01*
X155940095Y-109354705D01*
X155987714Y-109449943D01*
X156035333Y-109497562D01*
X156130571Y-109545181D01*
X156321048Y-109545181D01*
X156416286Y-109497562D01*
X156463905Y-109449943D01*
X156511524Y-109354705D01*
X156511524Y-109116610D01*
X156463905Y-109021371D01*
X156416286Y-108973752D01*
X156321048Y-108926133D01*
X156130571Y-108926133D01*
X156035333Y-108973752D01*
X155987714Y-109021371D01*
X155940095Y-109116610D01*
X168681495Y-84008981D02*
X168681495Y-84818505D01*
X168729114Y-84913743D01*
X168776733Y-84961362D01*
X168871971Y-85008981D01*
X169062448Y-85008981D01*
X169157686Y-84961362D01*
X169205305Y-84913743D01*
X169252924Y-84818505D01*
X169252924Y-84008981D01*
X169633876Y-84008981D02*
X170300543Y-84008981D01*
X169871971Y-85008981D01*
X111176095Y-104146381D02*
X111176095Y-104955905D01*
X111223714Y-105051143D01*
X111271333Y-105098762D01*
X111366571Y-105146381D01*
X111557048Y-105146381D01*
X111652286Y-105098762D01*
X111699905Y-105051143D01*
X111747524Y-104955905D01*
X111747524Y-104146381D01*
X112366571Y-104574952D02*
X112271333Y-104527333D01*
X112223714Y-104479714D01*
X112176095Y-104384476D01*
X112176095Y-104336857D01*
X112223714Y-104241619D01*
X112271333Y-104194000D01*
X112366571Y-104146381D01*
X112557048Y-104146381D01*
X112652286Y-104194000D01*
X112699905Y-104241619D01*
X112747524Y-104336857D01*
X112747524Y-104384476D01*
X112699905Y-104479714D01*
X112652286Y-104527333D01*
X112557048Y-104574952D01*
X112366571Y-104574952D01*
X112271333Y-104622571D01*
X112223714Y-104670190D01*
X112176095Y-104765429D01*
X112176095Y-104955905D01*
X112223714Y-105051143D01*
X112271333Y-105098762D01*
X112366571Y-105146381D01*
X112557048Y-105146381D01*
X112652286Y-105098762D01*
X112699905Y-105051143D01*
X112747524Y-104955905D01*
X112747524Y-104765429D01*
X112699905Y-104670190D01*
X112652286Y-104622571D01*
X112557048Y-104574952D01*
X93489581Y-75986705D02*
X94299105Y-75986705D01*
X94394343Y-75939086D01*
X94441962Y-75891467D01*
X94489581Y-75796229D01*
X94489581Y-75605752D01*
X94441962Y-75510514D01*
X94394343Y-75462895D01*
X94299105Y-75415276D01*
X93489581Y-75415276D01*
X94489581Y-74891467D02*
X94489581Y-74700991D01*
X94441962Y-74605752D01*
X94394343Y-74558133D01*
X94251486Y-74462895D01*
X94061010Y-74415276D01*
X93680057Y-74415276D01*
X93584819Y-74462895D01*
X93537200Y-74510514D01*
X93489581Y-74605752D01*
X93489581Y-74796229D01*
X93537200Y-74891467D01*
X93584819Y-74939086D01*
X93680057Y-74986705D01*
X93918152Y-74986705D01*
X94013390Y-74939086D01*
X94061010Y-74891467D01*
X94108629Y-74796229D01*
X94108629Y-74605752D01*
X94061010Y-74510514D01*
X94013390Y-74462895D01*
X93918152Y-74415276D01*
X135185705Y-66076581D02*
X135185705Y-66886105D01*
X135233324Y-66981343D01*
X135280943Y-67028962D01*
X135376181Y-67076581D01*
X135566658Y-67076581D01*
X135661896Y-67028962D01*
X135709515Y-66981343D01*
X135757134Y-66886105D01*
X135757134Y-66076581D01*
X136757134Y-67076581D02*
X136185705Y-67076581D01*
X136471419Y-67076581D02*
X136471419Y-66076581D01*
X136376181Y-66219438D01*
X136280943Y-66314676D01*
X136185705Y-66362295D01*
X137376181Y-66076581D02*
X137471420Y-66076581D01*
X137566658Y-66124200D01*
X137614277Y-66171819D01*
X137661896Y-66267057D01*
X137709515Y-66457533D01*
X137709515Y-66695629D01*
X137661896Y-66886105D01*
X137614277Y-66981343D01*
X137566658Y-67028962D01*
X137471420Y-67076581D01*
X137376181Y-67076581D01*
X137280943Y-67028962D01*
X137233324Y-66981343D01*
X137185705Y-66886105D01*
X137138086Y-66695629D01*
X137138086Y-66457533D01*
X137185705Y-66267057D01*
X137233324Y-66171819D01*
X137280943Y-66124200D01*
X137376181Y-66076581D01*
X121850705Y-66660781D02*
X121850705Y-67470305D01*
X121898324Y-67565543D01*
X121945943Y-67613162D01*
X122041181Y-67660781D01*
X122231658Y-67660781D01*
X122326896Y-67613162D01*
X122374515Y-67565543D01*
X122422134Y-67470305D01*
X122422134Y-66660781D01*
X123422134Y-67660781D02*
X122850705Y-67660781D01*
X123136419Y-67660781D02*
X123136419Y-66660781D01*
X123041181Y-66803638D01*
X122945943Y-66898876D01*
X122850705Y-66946495D01*
X124374515Y-67660781D02*
X123803086Y-67660781D01*
X124088800Y-67660781D02*
X124088800Y-66660781D01*
X123993562Y-66803638D01*
X123898324Y-66898876D01*
X123803086Y-66946495D01*
X114717334Y-107494543D02*
X114669715Y-107542162D01*
X114526858Y-107589781D01*
X114431620Y-107589781D01*
X114288762Y-107542162D01*
X114193524Y-107446924D01*
X114145905Y-107351686D01*
X114098286Y-107161210D01*
X114098286Y-107018352D01*
X114145905Y-106827876D01*
X114193524Y-106732638D01*
X114288762Y-106637400D01*
X114431620Y-106589781D01*
X114526858Y-106589781D01*
X114669715Y-106637400D01*
X114717334Y-106685019D01*
X115669715Y-107589781D02*
X115098286Y-107589781D01*
X115384000Y-107589781D02*
X115384000Y-106589781D01*
X115288762Y-106732638D01*
X115193524Y-106827876D01*
X115098286Y-106875495D01*
X108392934Y-108306943D02*
X108345315Y-108354562D01*
X108202458Y-108402181D01*
X108107220Y-108402181D01*
X107964362Y-108354562D01*
X107869124Y-108259324D01*
X107821505Y-108164086D01*
X107773886Y-107973610D01*
X107773886Y-107830752D01*
X107821505Y-107640276D01*
X107869124Y-107545038D01*
X107964362Y-107449800D01*
X108107220Y-107402181D01*
X108202458Y-107402181D01*
X108345315Y-107449800D01*
X108392934Y-107497419D01*
X108773886Y-107497419D02*
X108821505Y-107449800D01*
X108916743Y-107402181D01*
X109154839Y-107402181D01*
X109250077Y-107449800D01*
X109297696Y-107497419D01*
X109345315Y-107592657D01*
X109345315Y-107687895D01*
X109297696Y-107830752D01*
X108726267Y-108402181D01*
X109345315Y-108402181D01*
X114311534Y-104345143D02*
X114263915Y-104392762D01*
X114121058Y-104440381D01*
X114025820Y-104440381D01*
X113882962Y-104392762D01*
X113787724Y-104297524D01*
X113740105Y-104202286D01*
X113692486Y-104011810D01*
X113692486Y-103868952D01*
X113740105Y-103678476D01*
X113787724Y-103583238D01*
X113882962Y-103488000D01*
X114025820Y-103440381D01*
X114121058Y-103440381D01*
X114263915Y-103488000D01*
X114311534Y-103535619D01*
X114644867Y-103440381D02*
X115263915Y-103440381D01*
X114930581Y-103821333D01*
X115073439Y-103821333D01*
X115168677Y-103868952D01*
X115216296Y-103916571D01*
X115263915Y-104011810D01*
X115263915Y-104249905D01*
X115216296Y-104345143D01*
X115168677Y-104392762D01*
X115073439Y-104440381D01*
X114787724Y-104440381D01*
X114692486Y-104392762D01*
X114644867Y-104345143D01*
X114768134Y-108967343D02*
X114720515Y-109014962D01*
X114577658Y-109062581D01*
X114482420Y-109062581D01*
X114339562Y-109014962D01*
X114244324Y-108919724D01*
X114196705Y-108824486D01*
X114149086Y-108634010D01*
X114149086Y-108491152D01*
X114196705Y-108300676D01*
X114244324Y-108205438D01*
X114339562Y-108110200D01*
X114482420Y-108062581D01*
X114577658Y-108062581D01*
X114720515Y-108110200D01*
X114768134Y-108157819D01*
X115625277Y-108395914D02*
X115625277Y-109062581D01*
X115387181Y-108014962D02*
X115149086Y-108729248D01*
X115768134Y-108729248D01*
X108265934Y-106783143D02*
X108218315Y-106830762D01*
X108075458Y-106878381D01*
X107980220Y-106878381D01*
X107837362Y-106830762D01*
X107742124Y-106735524D01*
X107694505Y-106640286D01*
X107646886Y-106449810D01*
X107646886Y-106306952D01*
X107694505Y-106116476D01*
X107742124Y-106021238D01*
X107837362Y-105926000D01*
X107980220Y-105878381D01*
X108075458Y-105878381D01*
X108218315Y-105926000D01*
X108265934Y-105973619D01*
X109170696Y-105878381D02*
X108694505Y-105878381D01*
X108646886Y-106354571D01*
X108694505Y-106306952D01*
X108789743Y-106259333D01*
X109027839Y-106259333D01*
X109123077Y-106306952D01*
X109170696Y-106354571D01*
X109218315Y-106449810D01*
X109218315Y-106687905D01*
X109170696Y-106783143D01*
X109123077Y-106830762D01*
X109027839Y-106878381D01*
X108789743Y-106878381D01*
X108694505Y-106830762D01*
X108646886Y-106783143D01*
X117638534Y-112695181D02*
X117162343Y-112695181D01*
X117162343Y-111695181D01*
X118495677Y-112695181D02*
X117924248Y-112695181D01*
X118209962Y-112695181D02*
X118209962Y-111695181D01*
X118114724Y-111838038D01*
X118019486Y-111933276D01*
X117924248Y-111980895D01*
X104705562Y-118200819D02*
X104610324Y-118153200D01*
X104515086Y-118057962D01*
X104372229Y-117915105D01*
X104276990Y-117867486D01*
X104181752Y-117867486D01*
X104229371Y-118105581D02*
X104134133Y-118057962D01*
X104038895Y-117962724D01*
X103991276Y-117772248D01*
X103991276Y-117438914D01*
X104038895Y-117248438D01*
X104134133Y-117153200D01*
X104229371Y-117105581D01*
X104419848Y-117105581D01*
X104515086Y-117153200D01*
X104610324Y-117248438D01*
X104657943Y-117438914D01*
X104657943Y-117772248D01*
X104610324Y-117962724D01*
X104515086Y-118057962D01*
X104419848Y-118105581D01*
X104229371Y-118105581D01*
X105610324Y-118105581D02*
X105038895Y-118105581D01*
X105324609Y-118105581D02*
X105324609Y-117105581D01*
X105229371Y-117248438D01*
X105134133Y-117343676D01*
X105038895Y-117391295D01*
X130460362Y-109539019D02*
X130365124Y-109491400D01*
X130269886Y-109396162D01*
X130127029Y-109253305D01*
X130031790Y-109205686D01*
X129936552Y-109205686D01*
X129984171Y-109443781D02*
X129888933Y-109396162D01*
X129793695Y-109300924D01*
X129746076Y-109110448D01*
X129746076Y-108777114D01*
X129793695Y-108586638D01*
X129888933Y-108491400D01*
X129984171Y-108443781D01*
X130174648Y-108443781D01*
X130269886Y-108491400D01*
X130365124Y-108586638D01*
X130412743Y-108777114D01*
X130412743Y-109110448D01*
X130365124Y-109300924D01*
X130269886Y-109396162D01*
X130174648Y-109443781D01*
X129984171Y-109443781D01*
X130793695Y-108539019D02*
X130841314Y-108491400D01*
X130936552Y-108443781D01*
X131174648Y-108443781D01*
X131269886Y-108491400D01*
X131317505Y-108539019D01*
X131365124Y-108634257D01*
X131365124Y-108729495D01*
X131317505Y-108872352D01*
X130746076Y-109443781D01*
X131365124Y-109443781D01*
X108774134Y-102813981D02*
X108440800Y-102337790D01*
X108202705Y-102813981D02*
X108202705Y-101813981D01*
X108583658Y-101813981D01*
X108678896Y-101861600D01*
X108726515Y-101909219D01*
X108774134Y-102004457D01*
X108774134Y-102147314D01*
X108726515Y-102242552D01*
X108678896Y-102290171D01*
X108583658Y-102337790D01*
X108202705Y-102337790D01*
X109726515Y-102813981D02*
X109155086Y-102813981D01*
X109440800Y-102813981D02*
X109440800Y-101813981D01*
X109345562Y-101956838D01*
X109250324Y-102052076D01*
X109155086Y-102099695D01*
X108443334Y-105277781D02*
X108110000Y-104801590D01*
X107871905Y-105277781D02*
X107871905Y-104277781D01*
X108252858Y-104277781D01*
X108348096Y-104325400D01*
X108395715Y-104373019D01*
X108443334Y-104468257D01*
X108443334Y-104611114D01*
X108395715Y-104706352D01*
X108348096Y-104753971D01*
X108252858Y-104801590D01*
X107871905Y-104801590D01*
X108824286Y-104373019D02*
X108871905Y-104325400D01*
X108967143Y-104277781D01*
X109205239Y-104277781D01*
X109300477Y-104325400D01*
X109348096Y-104373019D01*
X109395715Y-104468257D01*
X109395715Y-104563495D01*
X109348096Y-104706352D01*
X108776667Y-105277781D01*
X109395715Y-105277781D01*
X114641134Y-106014581D02*
X114307800Y-105538390D01*
X114069705Y-106014581D02*
X114069705Y-105014581D01*
X114450658Y-105014581D01*
X114545896Y-105062200D01*
X114593515Y-105109819D01*
X114641134Y-105205057D01*
X114641134Y-105347914D01*
X114593515Y-105443152D01*
X114545896Y-105490771D01*
X114450658Y-105538390D01*
X114069705Y-105538390D01*
X114974467Y-105014581D02*
X115593515Y-105014581D01*
X115260181Y-105395533D01*
X115403039Y-105395533D01*
X115498277Y-105443152D01*
X115545896Y-105490771D01*
X115593515Y-105586010D01*
X115593515Y-105824105D01*
X115545896Y-105919343D01*
X115498277Y-105966962D01*
X115403039Y-106014581D01*
X115117324Y-106014581D01*
X115022086Y-105966962D01*
X114974467Y-105919343D01*
X108367134Y-103881181D02*
X108033800Y-103404990D01*
X107795705Y-103881181D02*
X107795705Y-102881181D01*
X108176658Y-102881181D01*
X108271896Y-102928800D01*
X108319515Y-102976419D01*
X108367134Y-103071657D01*
X108367134Y-103214514D01*
X108319515Y-103309752D01*
X108271896Y-103357371D01*
X108176658Y-103404990D01*
X107795705Y-103404990D01*
X109224277Y-103214514D02*
X109224277Y-103881181D01*
X108986181Y-102833562D02*
X108748086Y-103547848D01*
X109367134Y-103547848D01*
X108367534Y-110078581D02*
X108034200Y-109602390D01*
X107796105Y-110078581D02*
X107796105Y-109078581D01*
X108177058Y-109078581D01*
X108272296Y-109126200D01*
X108319915Y-109173819D01*
X108367534Y-109269057D01*
X108367534Y-109411914D01*
X108319915Y-109507152D01*
X108272296Y-109554771D01*
X108177058Y-109602390D01*
X107796105Y-109602390D01*
X109272296Y-109078581D02*
X108796105Y-109078581D01*
X108748486Y-109554771D01*
X108796105Y-109507152D01*
X108891343Y-109459533D01*
X109129439Y-109459533D01*
X109224677Y-109507152D01*
X109272296Y-109554771D01*
X109319915Y-109650010D01*
X109319915Y-109888105D01*
X109272296Y-109983343D01*
X109224677Y-110030962D01*
X109129439Y-110078581D01*
X108891343Y-110078581D01*
X108796105Y-110030962D01*
X108748486Y-109983343D01*
X98491381Y-92292466D02*
X98015190Y-92625800D01*
X98491381Y-92863895D02*
X97491381Y-92863895D01*
X97491381Y-92482942D01*
X97539000Y-92387704D01*
X97586619Y-92340085D01*
X97681857Y-92292466D01*
X97824714Y-92292466D01*
X97919952Y-92340085D01*
X97967571Y-92387704D01*
X98015190Y-92482942D01*
X98015190Y-92863895D01*
X97491381Y-91435323D02*
X97491381Y-91625800D01*
X97539000Y-91721038D01*
X97586619Y-91768657D01*
X97729476Y-91863895D01*
X97919952Y-91911514D01*
X98300905Y-91911514D01*
X98396143Y-91863895D01*
X98443762Y-91816276D01*
X98491381Y-91721038D01*
X98491381Y-91530561D01*
X98443762Y-91435323D01*
X98396143Y-91387704D01*
X98300905Y-91340085D01*
X98062810Y-91340085D01*
X97967571Y-91387704D01*
X97919952Y-91435323D01*
X97872333Y-91530561D01*
X97872333Y-91721038D01*
X97919952Y-91816276D01*
X97967571Y-91863895D01*
X98062810Y-91911514D01*
X141679762Y-108064333D02*
X141727381Y-107921476D01*
X141727381Y-107683380D01*
X141679762Y-107588142D01*
X141632143Y-107540523D01*
X141536905Y-107492904D01*
X141441667Y-107492904D01*
X141346429Y-107540523D01*
X141298810Y-107588142D01*
X141251190Y-107683380D01*
X141203571Y-107873857D01*
X141155952Y-107969095D01*
X141108333Y-108016714D01*
X141013095Y-108064333D01*
X140917857Y-108064333D01*
X140822619Y-108016714D01*
X140775000Y-107969095D01*
X140727381Y-107873857D01*
X140727381Y-107635761D01*
X140775000Y-107492904D01*
X140727381Y-107159571D02*
X141727381Y-106921476D01*
X141013095Y-106730999D01*
X141727381Y-106540523D01*
X140727381Y-106302428D01*
X141727381Y-105397666D02*
X141727381Y-105969095D01*
X141727381Y-105683381D02*
X140727381Y-105683381D01*
X140870238Y-105778619D01*
X140965476Y-105873857D01*
X141013095Y-105969095D01*
X98091381Y-89003095D02*
X97091381Y-89003095D01*
X97091381Y-88765000D01*
X97139000Y-88622142D01*
X97234238Y-88526904D01*
X97329476Y-88479285D01*
X97519952Y-88431666D01*
X97662810Y-88431666D01*
X97853286Y-88479285D01*
X97948524Y-88526904D01*
X98043762Y-88622142D01*
X98091381Y-88765000D01*
X98091381Y-89003095D01*
X98091381Y-87479285D02*
X98091381Y-88050714D01*
X98091381Y-87765000D02*
X97091381Y-87765000D01*
X97234238Y-87860238D01*
X97329476Y-87955476D01*
X97377095Y-88050714D01*
X98115381Y-85650295D02*
X97115381Y-85650295D01*
X97115381Y-85412200D01*
X97163000Y-85269342D01*
X97258238Y-85174104D01*
X97353476Y-85126485D01*
X97543952Y-85078866D01*
X97686810Y-85078866D01*
X97877286Y-85126485D01*
X97972524Y-85174104D01*
X98067762Y-85269342D01*
X98115381Y-85412200D01*
X98115381Y-85650295D01*
X97210619Y-84697914D02*
X97163000Y-84650295D01*
X97115381Y-84555057D01*
X97115381Y-84316961D01*
X97163000Y-84221723D01*
X97210619Y-84174104D01*
X97305857Y-84126485D01*
X97401095Y-84126485D01*
X97543952Y-84174104D01*
X98115381Y-84745533D01*
X98115381Y-84126485D01*
X95985105Y-103373181D02*
X95985105Y-102373181D01*
X96366058Y-102373181D01*
X96461296Y-102420800D01*
X96508915Y-102468419D01*
X96556534Y-102563657D01*
X96556534Y-102706514D01*
X96508915Y-102801752D01*
X96461296Y-102849371D01*
X96366058Y-102896990D01*
X95985105Y-102896990D01*
X96889867Y-102373181D02*
X97508915Y-102373181D01*
X97175581Y-102754133D01*
X97318439Y-102754133D01*
X97413677Y-102801752D01*
X97461296Y-102849371D01*
X97508915Y-102944610D01*
X97508915Y-103182705D01*
X97461296Y-103277943D01*
X97413677Y-103325562D01*
X97318439Y-103373181D01*
X97032724Y-103373181D01*
X96937486Y-103325562D01*
X96889867Y-103277943D01*
M02*
